<svg width="101" height="100" viewBox="0 0 101 100" fill="none" xmlns="http://www.w3.org/2000/svg">
<g clip-path="url(#clip0_1198_5805)">
<circle cx="50.2617" cy="49.6364" r="50" fill="#FFCE00"/>
<mask id="mask0_1198_5805" style="mask-type:alpha" maskUnits="userSpaceOnUse" x="42" y="9" width="59" height="53">
<path d="M94.0074 23.9174C84.5638 16.1464 75.9549 22.6278 75.9549 22.6278C75.9549 22.6278 75.0575 11.889 62.9691 10.0256C50.818 8.14939 40.8853 18.9408 43.3108 33.8978C45.1782 45.4055 52.1965 54.7998 55.9665 59.157C56.7153 60.0205 57.6436 60.7101 58.6866 61.1778C59.7295 61.6455 60.8619 61.8799 62.0048 61.8647C67.7722 61.7828 79.457 60.7591 89.2828 54.4868C102.067 46.3273 103.502 31.7298 94.0074 23.9174Z" fill="#FF7E1D"/>
</mask>
<g mask="url(#mask0_1198_5805)">
<path d="M94.0074 23.9174C84.5638 16.1464 75.9549 22.6278 75.9549 22.6278C75.9549 22.6278 75.0575 11.889 62.9691 10.0256C50.818 8.14939 40.8853 18.9408 43.3108 33.8978C45.1782 45.4055 52.1965 54.7998 55.9665 59.157C56.7153 60.0205 57.6436 60.7101 58.6866 61.1778C59.7295 61.6455 60.8619 61.8799 62.0048 61.8647C67.7722 61.7828 79.457 60.7591 89.2828 54.4868C102.067 46.3273 103.502 31.7298 94.0074 23.9174Z" fill="#FF7E1D"/>
<path d="M97.1441 25.283C96.8987 33.1107 92.1103 40.0627 86.7461 45.7697C75.8185 57.3498 61.9737 65.7731 46.6663 70.1545C53.0784 71.1813 59.4874 72.2111 65.9092 73.1837C67.6611 73.45 69.4418 73.7112 71.2038 73.4989C73.0491 73.2769 74.7877 72.5424 76.4921 71.7985C85.7518 67.762 94.8662 63.1433 102.592 56.6432C110.319 50.1431 116.615 41.583 118.935 31.7577" fill="#FF6700"/>
</g>
<path d="M58.824 17.2353C56.1381 17.7521 52.9171 19.4474 50.7809 24.2162" stroke="white" stroke-width="5" stroke-linecap="round" stroke-linejoin="round"/>
<path d="M50.1426 33.1646L50.6296 34.9496" stroke="white" stroke-width="5" stroke-linecap="round" stroke-linejoin="round"/>
<path d="M30.7585 56.1806L28.928 53.6361C28.8149 53.4801 28.662 53.3572 28.4852 53.2804C28.3085 53.2037 28.1143 53.1757 27.9231 53.1995C27.7318 53.2233 27.5505 53.298 27.3979 53.4158C27.2454 53.5336 27.1272 53.6901 27.0558 53.8691L25.9005 56.7818C24.2292 61.0124 21.3779 64.674 17.6857 67.331L15.145 69.1648C14.9875 69.277 14.8633 69.4297 14.7855 69.6067C14.7077 69.7837 14.6792 69.9785 14.703 70.1704C14.7269 70.3623 14.8022 70.5441 14.921 70.6967C15.0398 70.8492 15.1976 70.9668 15.3778 71.037L18.2903 72.192C22.5206 73.8629 26.1819 76.7139 28.8384 80.4059L30.6718 82.9465C30.784 83.104 30.9367 83.2283 31.1137 83.306C31.2908 83.3838 31.4855 83.4123 31.6774 83.3884C31.8693 83.3645 32.0511 83.2892 32.2037 83.1704C32.3563 83.0516 32.4739 82.8937 32.544 82.7135L33.6993 79.8009C35.3706 75.5702 38.2219 71.9086 41.9141 69.2516L44.4548 67.4179C44.6109 67.3048 44.7337 67.1518 44.8105 66.9751C44.8873 66.7983 44.9153 66.6042 44.8915 66.4129C44.8677 66.2217 44.7931 66.0403 44.6753 65.8878C44.5576 65.7352 44.401 65.6171 44.222 65.5456L41.3066 64.3945C37.0787 62.7193 33.4185 59.8691 30.7585 56.1806Z" fill="#FF9900"/>
<path d="M65.6283 72.3798C60.9331 73.03 60.5121 77.1864 60.5121 77.1864C60.5121 77.1864 57.2151 74.6183 53.5067 77.5726C49.7983 80.5269 50.2419 86.2089 55.1412 89.451C58.9235 91.9438 63.4358 92.4136 65.6704 92.4814C66.1131 92.4946 66.5534 92.4112 66.9606 92.2369C67.3678 92.0626 67.732 91.8016 68.028 91.4721C69.5204 89.8044 72.3014 86.2081 73.0973 81.7588C74.1337 75.9752 70.35 71.7301 65.6283 72.3798Z" fill="#FFE14F"/>
<path d="M17.2982 3.85447C17.4186 3.9126 17.5336 3.98128 17.6419 4.05971L30.2696 13.1539C30.7578 13.5138 31.0844 14.0517 31.1784 14.6509C31.2725 15.2501 31.1264 15.8622 30.7719 16.3544C30.4174 16.8465 29.8831 17.179 29.285 17.2796C28.6868 17.3803 28.0731 17.2409 27.5771 16.8918L14.9479 7.78861C14.491 7.44765 14.1768 6.9494 14.0661 6.3902C13.9553 5.831 14.0558 5.25058 14.3481 4.76119C14.6405 4.2718 15.104 3.90822 15.6489 3.74074C16.1938 3.57326 16.7814 3.61378 17.2982 3.85447Z" fill="white"/>
<path d="M26.6385 25.4633C27.1708 25.6546 27.6141 26.0351 27.8839 26.5322C28.1537 27.0293 28.2312 27.6084 28.1015 28.1589C27.9719 28.7095 27.6442 29.1931 27.1809 29.5176C26.7177 29.8421 26.1512 29.9848 25.5895 29.9186L6.56802 27.5209C5.96182 27.4446 5.41076 27.1305 5.03607 26.6479C4.66139 26.1653 4.49377 25.5536 4.5701 24.9474C4.64642 24.3412 4.96044 23.7901 5.44306 23.4154C5.92569 23.0408 6.53739 22.8731 7.14359 22.9495L26.1654 25.349C26.3267 25.3703 26.4853 25.4086 26.6385 25.4633Z" fill="white"/>
<path d="M29.0058 38.4775C29.4005 38.6699 29.7319 38.9711 29.9612 39.3456C30.1905 39.72 30.3081 40.1521 30.3002 40.5912C30.2922 41.0302 30.1591 41.4578 29.9164 41.8237C29.6737 42.1896 29.3316 42.4786 28.9302 42.6567L22.6541 45.4308C22.0953 45.6779 21.4612 45.693 20.8913 45.4726C20.3215 45.2522 19.8624 44.8145 19.6153 44.2557C19.3681 43.6969 19.3531 43.0629 19.5734 42.493C19.7938 41.9231 20.2315 41.4641 20.7903 41.2169L27.0664 38.4428C27.3727 38.307 27.705 38.2397 28.04 38.2457C28.375 38.2516 28.7046 38.3308 29.0058 38.4775Z" fill="white"/>
<path d="M0.704327 16.0164C1.01329 16.5235 1.46569 16.9274 2.00423 17.1769C2.54277 17.4265 3.14322 17.5105 3.72949 17.4182C4.31577 17.326 4.86149 17.0617 5.29753 16.6588C5.73357 16.2559 6.0403 15.7325 6.17886 15.1551C6.31743 14.5776 6.28159 13.9719 6.07589 13.4148C5.87019 12.8577 5.50388 12.3743 5.02337 12.0257C4.54286 11.6771 3.9698 11.4791 3.37674 11.4567C2.78368 11.4344 2.19734 11.5887 1.69199 11.9001C1.35655 12.105 1.06483 12.3742 0.83356 12.6922C0.602286 13.0101 0.436006 13.3707 0.34425 13.7531C0.252495 14.1355 0.237071 14.5323 0.298862 14.9206C0.360653 15.309 0.498436 15.6814 0.704327 16.0164Z" fill="#FFCE00"/>
<path d="M9.63056 53.2561C9.88802 53.6787 10.265 54.0152 10.7138 54.2232C11.1626 54.4312 11.663 54.5011 12.1515 54.4243C12.6401 54.3474 13.0949 54.1272 13.4582 53.7914C13.8216 53.4557 14.0772 53.0196 14.1927 52.5383C14.3081 52.0571 14.2783 51.5524 14.1069 51.0881C13.9354 50.6239 13.6302 50.221 13.2298 49.9305C12.8293 49.64 12.3518 49.475 11.8576 49.4564C11.3634 49.4378 10.8747 49.5664 10.4536 49.8259C10.1741 49.9966 9.93098 50.2209 9.73825 50.4859C9.54552 50.7509 9.40696 51.0513 9.33049 51.37C9.25403 51.6887 9.24118 52.0193 9.29267 52.343C9.34416 52.6666 9.45898 52.9769 9.63056 53.2561Z" fill="#FAF6F4"/>
</g>
<defs>
<clipPath id="clip0_1198_5805">
<rect width="100" height="100" fill="white" transform="translate(0.261719)"/>
</clipPath>
</defs>
</svg>
