<svg width="101" height="101" viewBox="0 0 101 101" fill="none" xmlns="http://www.w3.org/2000/svg">
<path d="M50.2617 100.636C77.876 100.636 100.262 78.2506 100.262 50.6364C100.262 23.0221 77.876 0.636353 50.2617 0.636353C22.6475 0.636353 0.261719 23.0221 0.261719 50.6364C0.261719 78.2506 22.6475 100.636 50.2617 100.636Z" fill="#3B197F"/>
<path d="M62.6887 24.2879L60.8427 25.297C60.729 25.3593 60.6342 25.451 60.5682 25.5625C60.5021 25.674 60.4673 25.8013 60.4673 25.9309C60.4673 26.0605 60.5021 26.1877 60.5682 26.2992C60.6342 26.4107 60.729 26.5025 60.8427 26.5647L62.6887 27.5739C65.3657 29.0375 67.5666 31.2384 69.0301 33.9154L70.0393 35.7586C70.1012 35.8723 70.1926 35.9673 70.3039 36.0334C70.4152 36.0996 70.5423 36.1345 70.6718 36.1345C70.8013 36.1345 70.9284 36.0996 71.0397 36.0334C71.151 35.9673 71.2424 35.8723 71.3043 35.7586L72.3134 33.9154C73.777 31.2384 75.9779 29.0375 78.6549 27.5739L80.5009 26.5647C80.6145 26.5025 80.7093 26.4107 80.7754 26.2992C80.8414 26.1877 80.8763 26.0605 80.8763 25.9309C80.8763 25.8013 80.8414 25.674 80.7754 25.5625C80.7093 25.451 80.6145 25.3593 80.5009 25.297L78.6549 24.2879C75.9786 22.8246 73.7779 20.6248 72.3134 17.9492L71.3043 16.1032C71.2424 15.9894 71.151 15.8945 71.0397 15.8284C70.9284 15.7622 70.8013 15.7273 70.6718 15.7273C70.5423 15.7273 70.4152 15.7622 70.3039 15.8284C70.1926 15.8945 70.1012 15.9894 70.0393 16.1032L69.0301 17.9492C67.5657 20.6248 65.3649 22.8246 62.6887 24.2879Z" fill="#FFCE00"/>
<path d="M84.2985 41.9522L83.6034 42.333C83.5619 42.3576 83.5276 42.3926 83.5037 42.4345C83.4798 42.4764 83.4673 42.5239 83.4673 42.5721C83.4673 42.6204 83.4798 42.6678 83.5037 42.7097C83.5276 42.7516 83.5619 42.7866 83.6034 42.8112L84.2985 43.1921C85.3092 43.7442 86.14 44.575 86.6921 45.5857L87.073 46.2808C87.0976 46.3223 87.1326 46.3566 87.1745 46.3805C87.2164 46.4044 87.2639 46.4169 87.3121 46.4169C87.3603 46.4169 87.4077 46.4044 87.4497 46.3805C87.4916 46.3566 87.5266 46.3223 87.5512 46.2808L87.9321 45.5857C88.483 44.5751 89.313 43.7442 90.323 43.1921L91.0208 42.8112C91.0622 42.7866 91.0966 42.7516 91.1205 42.7097C91.1444 42.6678 91.1569 42.6204 91.1569 42.5721C91.1569 42.5239 91.1444 42.4764 91.1205 42.4345C91.0966 42.3926 91.0622 42.3576 91.0208 42.333L90.323 41.9522C89.3132 41.401 88.4832 40.5711 87.9321 39.5613L87.5512 38.8634C87.5266 38.822 87.4916 38.7876 87.4497 38.7637C87.4077 38.7398 87.3603 38.7273 87.3121 38.7273C87.2639 38.7273 87.2164 38.7398 87.1745 38.7637C87.1326 38.7876 87.0976 38.822 87.073 38.8634L86.6921 39.5613C86.14 40.5713 85.3091 41.4012 84.2985 41.9522Z" fill="#FF7E1D"/>
<path d="M45.9678 54.163C42.0523 49.273 39.6944 43.3204 39.199 37.0755C38.7037 30.8307 40.0938 24.5809 43.1895 19.1347C43.4177 18.7414 43.5224 18.2886 43.4901 17.835C43.4578 17.3815 43.29 16.9481 43.0084 16.5911C42.7268 16.2341 42.3444 15.9699 41.9108 15.8328C41.4773 15.6958 41.0126 15.6921 40.5769 15.8224C32.2256 18.2156 24.4747 23.6892 19.0217 32.4215C16.2555 36.8777 14.5363 41.9033 13.9934 47.1201C13.4505 52.3369 14.0981 57.6088 15.8874 62.5392C25.0999 87.8829 54.5551 94.665 73.5225 79.4819C77.6435 76.1951 81.0004 72.0513 83.3603 67.3379C83.5626 66.9356 83.6406 66.4821 83.5843 66.0353C83.5281 65.5885 83.3401 65.1685 83.0444 64.8288C82.7487 64.4892 82.3586 64.2452 81.9238 64.128C81.489 64.0107 81.0291 64.0255 80.6027 64.1705C74.5007 66.2758 67.897 66.4425 61.6965 64.648C55.496 62.8534 50.0021 59.1854 45.9678 54.1464" fill="#A273C6"/>
<mask id="mask0_1198_5828" style="mask-type:alpha" maskUnits="userSpaceOnUse" x="13" y="15" width="71" height="73">
<path d="M45.9678 54.163C42.0523 49.273 39.6944 43.3204 39.199 37.0755C38.7037 30.8307 40.0938 24.5809 43.1895 19.1347C43.4177 18.7414 43.5224 18.2886 43.4901 17.835C43.4578 17.3815 43.29 16.9481 43.0084 16.5911C42.7268 16.2341 42.3444 15.9699 41.9108 15.8328C41.4773 15.6958 41.0126 15.6921 40.5769 15.8224C32.2256 18.2156 24.4747 23.6892 19.0217 32.4215C16.2555 36.8777 14.5363 41.9033 13.9934 47.1201C13.4505 52.3369 14.0981 57.6088 15.8874 62.5392C25.0999 87.8829 54.5551 94.665 73.5225 79.4819C77.6435 76.1951 81.0004 72.0513 83.3603 67.3379C83.5626 66.9356 83.6406 66.4821 83.5843 66.0353C83.5281 65.5885 83.3401 65.1685 83.0444 64.8288C82.7487 64.4892 82.3586 64.2452 81.9238 64.128C81.489 64.0107 81.0291 64.0255 80.6027 64.1705C74.5007 66.2758 67.897 66.4425 61.6965 64.648C55.496 62.8534 50.0021 59.1854 45.9678 54.1464" fill="#A273C6"/>
</mask>
<g mask="url(#mask0_1198_5828)">
<path d="M12.2421 34.9763C14.9706 47.0665 24.8456 56.2707 35.379 62.8043C53.9977 74.2968 75.6826 79.8282 97.5314 78.6582C90.9066 87.9038 80.7211 94.2718 69.7903 97.4972C58.8595 100.723 47.2497 100.975 35.9586 99.5675C31.4828 99.0126 26.9531 98.1804 22.9659 96.077C19.7073 94.3629 16.9374 91.8662 14.2047 89.3985C10.1512 85.7342 6.09351 82.0699 2.25117 78.1861C-1.00323 74.9028 -4.11272 71.4537 -6.67566 67.6114C-10.7209 61.5498 -13.3004 54.6683 -15.8882 47.8531" fill="#8251A8"/>
</g>
<path d="M60.9597 78.6742C58.7095 78.5345 56.4791 79.167 54.6372 80.4671C53.6149 77.8581 51.8299 75.6178 49.5151 74.0386C47.2003 72.4594 44.4632 71.6148 41.661 71.6148C39.3634 71.6141 37.1015 72.1831 35.0777 73.271C31.724 70.4265 27.4679 68.8679 23.0704 68.8738C20.6272 68.8733 18.2079 69.354 15.9506 70.2887C13.6934 71.2234 11.6424 72.5937 9.91479 74.3213C8.18723 76.0489 6.81695 78.0998 5.88225 80.3571C4.94755 82.6144 4.46674 85.0337 4.46729 87.4768C4.46729 87.6922 4.46729 87.8909 4.46729 88.1269C4.50904 89.1199 4.93392 90.058 5.6527 90.7444C6.37147 91.4307 7.32822 91.8119 8.32205 91.8078H66.3754C66.911 91.8088 67.441 91.6981 67.9314 91.4827C68.4218 91.2673 68.8619 90.9519 69.2235 90.5568C69.5851 90.1617 69.8603 89.6955 70.0315 89.188C70.2027 88.6804 70.2661 88.1428 70.2178 87.6094V87.5059C69.9619 85.1792 68.8929 83.0174 67.1992 81.4018C65.5055 79.7861 63.2959 78.8202 60.9597 78.6742Z" fill="#EAE7E4"/>
</svg>
