<svg width="101" height="101" viewBox="0 0 101 101" fill="none" xmlns="http://www.w3.org/2000/svg">
<g id="Trio-3">
<g id="Group 2965">
<g id="Group 2961">
<mask id="mask0_1198_5843" style="mask-type:alpha" maskUnits="userSpaceOnUse" x="0" y="0" width="101" height="101">
<circle id="Ellipse 171" cx="50.2617" cy="50.6364" r="50" fill="#C4C4C4"/>
</mask>
<g mask="url(#mask0_1198_5843)">
<g id="Group 2963">
<path id="Vector" d="M49.8623 222.636C115.559 222.636 168.816 169.379 168.816 103.682C168.816 37.9858 115.559 -15.2718 49.8623 -15.2718C-15.8343 -15.2718 -69.0918 37.9858 -69.0918 103.682C-69.0918 169.379 -15.8343 222.636 49.8623 222.636Z" fill="#FFCE00"/>
<path id="Vector_2" d="M49.8624 163.159C88.8697 163.159 120.491 131.537 120.491 92.53C120.491 53.5227 88.8697 21.901 49.8624 21.901C10.8551 21.901 -20.7666 53.5227 -20.7666 92.53C-20.7666 131.537 10.8551 163.159 49.8624 163.159Z" fill="#FFE14F"/>
<path id="Vector_3" d="M49.8625 142.714C77.5782 142.714 100.046 120.246 100.046 92.5301C100.046 64.8143 77.5782 42.3463 49.8625 42.3463C22.1467 42.3463 -0.321289 64.8143 -0.321289 92.5301C-0.321289 120.246 22.1467 142.714 49.8625 142.714Z" fill="#FF7E1D"/>
<g id="Group 2968">
<path id="Vector_4" d="M44.8037 65.0485C45.1977 66.0454 45.8825 66.9009 46.7689 67.5037C47.6554 68.1065 48.7026 68.4288 49.7746 68.4288C50.8466 68.4288 51.8939 68.1065 52.7803 67.5037C53.6668 66.9009 54.3515 66.0454 54.7455 65.0485" stroke="#3A3938" stroke-width="2" stroke-linecap="round" stroke-linejoin="round"/>
<path id="Vector_5" d="M52.1816 56.1539C52.7041 57.4778 53.6127 58.6138 54.7893 59.4145C55.966 60.2151 57.3563 60.6432 58.7795 60.6432C60.2027 60.6432 61.593 60.2151 62.7696 59.4145C63.9463 58.6138 64.8549 57.4778 65.3773 56.1539" stroke="#3A3938" stroke-width="2" stroke-linecap="round" stroke-linejoin="round"/>
<path id="Vector_6" d="M34.1709 56.1539C34.6933 57.4778 35.6019 58.6138 36.7786 59.4145C37.9553 60.2151 39.3455 60.6432 40.7687 60.6432C42.1919 60.6432 43.5822 60.2151 44.7589 59.4145C45.9355 58.6138 46.8441 57.4778 47.3666 56.1539" stroke="#3A3938" stroke-width="2" stroke-linecap="round" stroke-linejoin="round"/>
</g>
</g>
</g>
</g>
<g id="Group 2962">
<g id="Group 2971">
<path id="Vector_7" d="M35.1345 29.0301C38.5182 29.0301 41.2612 26.2871 41.2612 22.9034C41.2612 19.5197 38.5182 16.7767 35.1345 16.7767C31.7508 16.7767 29.0078 19.5197 29.0078 22.9034C29.0078 26.2871 31.7508 29.0301 35.1345 29.0301Z" fill="#FAF6F4"/>
<path id="Vector_8" d="M22.2772 29.0294C27.7078 29.0294 32.1101 24.6271 32.1101 19.1965C32.1101 13.766 27.7078 9.36365 22.2772 9.36365C16.8467 9.36365 12.4443 13.766 12.4443 19.1965C12.4443 24.6271 16.8467 29.0294 22.2772 29.0294Z" fill="#FAF6F4"/>
<path id="Vector_9" d="M8.88861 29.0305C13.6531 29.0305 17.5155 25.1681 17.5155 20.4036C17.5155 15.6391 13.6531 11.7767 8.88861 11.7767C4.12412 11.7767 0.261719 15.6391 0.261719 20.4036C0.261719 25.1681 4.12412 29.0305 8.88861 29.0305Z" fill="#FAF6F4"/>
<path id="Vector_10" d="M35.1347 22.3617H8.89062V29.0303H35.1347V22.3617Z" fill="#FAF6F4"/>
</g>
</g>
<g id="Group 2963_2">
<g id="Group 2971_2">
<path id="Vector_11" d="M93.7617 91.3636C97.3516 91.3636 100.262 88.4535 100.262 84.8636C100.262 81.2738 97.3516 78.3636 93.7617 78.3636C90.1719 78.3636 87.2617 81.2738 87.2617 84.8636C87.2617 88.4535 90.1719 91.3636 93.7617 91.3636Z" fill="#FAF6F4"/>
<path id="Vector_12" d="M83.1284 91.1108C88.0292 91.1108 92.002 87.1379 92.002 82.2372C92.002 77.3365 88.0292 73.3636 83.1284 73.3636C78.2277 73.3636 74.2549 77.3365 74.2549 82.2372C74.2549 87.1379 78.2277 91.1108 83.1284 91.1108Z" fill="#FAF6F4"/>
<path id="Vector_13" d="M71.0469 91.1118C75.3466 91.1118 78.8321 87.6263 78.8321 83.3266C78.8321 79.0269 75.3466 75.5414 71.0469 75.5414C66.7473 75.5414 63.2617 79.0269 63.2617 83.3266C63.2617 87.6263 66.7473 91.1118 71.0469 91.1118Z" fill="#FAF6F4"/>
<path id="Vector_14" d="M63.7907 91.4216C66.8442 91.4216 69.3196 88.9462 69.3196 85.8926C69.3196 82.839 66.8442 80.3636 63.7907 80.3636C60.7371 80.3636 58.2617 82.839 58.2617 85.8926C58.2617 88.9462 60.7371 91.4216 63.7907 91.4216Z" fill="#FAF6F4"/>
<path id="Vector_15" d="M94.2617 85.3636H63.2617V91.3636H94.2617V85.3636Z" fill="#FAF6F4"/>
</g>
</g>
</g>
</g>
</svg>
